<?xml version="1.0" encoding="utf-8"?> <!-- Generator: IcoMoon.io --> <!DOCTYPE svg PUBLIC "-//W3C//DTD SVG 1.1//EN" "http://www.w3.org/Graphics/SVG/1.1/DTD/svg11.dtd"> <svg fill="#ffffff" xmlns:xlink="http://www.w3.org/1999/xlink" xmlns="http://www.w3.org/2000/svg" width="512" height="512" viewBox="0 0 512 512"><path d="M 512.00,287.504l0.00-64.00 l-76.496-31.872c-2.128-6.00-4.368-11.808-7.12-17.504l 30.88-76.88L 414.00,52.00 l-76.192,31.376c-5.808-2.816-11.744-5.184-17.872-7.376L 287.504,0.00l-64.00,0.00 l-31.632,75.744c-6.368,2.256-12.496,4.624-18.56,7.504l-76.064-30.56 L 52.00,97.936l 31.008,75.376C 80.00,179.504, 77.568,185.808, 75.248,192.32L0.00,224.496l0.00,64.00 l 75.312,31.376c 2.32,6.496, 4.816,12.816, 7.808,19.008 l-30.432,75.872l 45.248,45.248l 75.568-31.12c 6.064,2.88, 12.256,5.184, 18.624,7.376L 224.496,512.00l 64.00,0.00 l 31.68-76.128 c 6.064-2.256, 12.064-4.624, 17.808-7.376l 76.752,30.752l 45.248-45.248l-31.504-76.368c 2.688-5.744, 4.88-11.568, 7.008-17.504L 512.00,287.504z M 255.504,352.00c-52.992,0.00-96.00-43.008-96.00-96.00s 43.008-96.00, 96.00-96.00s 96.00,43.008, 96.00,96.00S 308.496,352.00, 255.504,352.00z" ></path></svg>