<?xml version="1.0" encoding="utf-8"?> <!-- Generator: IcoMoon.io --> <!DOCTYPE svg PUBLIC "-//W3C//DTD SVG 1.1//EN" "http://www.w3.org/Graphics/SVG/1.1/DTD/svg11.dtd"> <svg fill="#ffffff" xmlns:xlink="http://www.w3.org/1999/xlink" xmlns="http://www.w3.org/2000/svg" width="512" height="512" viewBox="0 0 512 512"><path d="M 256.00,0.00C 114.615,0.00,0.00,114.615,0.00,256.00s 114.615,256.00, 256.00,256.00s 256.00-114.615, 256.00-256.00S 397.385,0.00, 256.00,0.00z M 352.00,128.00 c 17.673,0.00, 32.00,14.327, 32.00,32.00s-14.327,32.00-32.00,32.00s-32.00-14.327-32.00-32.00S 334.327,128.00, 352.00,128.00z M 160.00,128.00c 17.673,0.00, 32.00,14.327, 32.00,32.00 s-14.327,32.00-32.00,32.00s-32.00-14.327-32.00-32.00S 142.327,128.00, 160.00,128.00z M 352.049,390.37C 332.462,357.796, 296.777,336.00, 256.00,336.00 c-40.778,0.00-76.462,21.796-96.049,54.37l-41.164-24.698C 146.767,319.137, 197.745,288.00, 256.00,288.00c 58.254,0.00, 109.232,31.137, 137.213,77.672 L 352.049,390.37z" ></path></svg>