<?xml version="1.0" encoding="utf-8"?> <!-- Generator: IcoMoon.io --> <!DOCTYPE svg PUBLIC "-//W3C//DTD SVG 1.1//EN" "http://www.w3.org/Graphics/SVG/1.1/DTD/svg11.dtd"> <svg fill="#ffffff" xmlns:xlink="http://www.w3.org/1999/xlink" xmlns="http://www.w3.org/2000/svg" width="512" height="512" viewBox="0 0 512 512"><path d="M 256.00,0.00C 114.615,0.00,0.00,114.615,0.00,256.00s 114.615,256.00, 256.00,256.00s 256.00-114.615, 256.00-256.00S 397.385,0.00, 256.00,0.00z M 160.00,224.00 c-17.673,0.00-32.00-21.49-32.00-48.00s 14.327-48.00, 32.00-48.00s 32.00,21.49, 32.00,48.00S 177.673,224.00, 160.00,224.00z M 256.00,416.00c-35.346,0.00-64.00-28.654-64.00-64.00 s 28.654-64.00, 64.00-64.00c 35.346,0.00, 64.00,28.654, 64.00,64.00S 291.346,416.00, 256.00,416.00z M 352.00,224.00c-17.673,0.00-32.00-21.49-32.00-48.00s 14.327-48.00, 32.00-48.00 s 32.00,21.49, 32.00,48.00S 369.673,224.00, 352.00,224.00z" ></path></svg>