<?xml version="1.0" encoding="utf-8"?> <!-- Generator: IcoMoon.io --> <!DOCTYPE svg PUBLIC "-//W3C//DTD SVG 1.1//EN" "http://www.w3.org/Graphics/SVG/1.1/DTD/svg11.dtd"> <svg fill="#ffffff" xmlns:xlink="http://www.w3.org/1999/xlink" xmlns="http://www.w3.org/2000/svg" width="512" height="512" viewBox="0 0 512 512"><path d="M 256.00,96.00C 144.341,96.00, 47.559,161.021,0.00,256.00c 47.559,94.979, 144.341,160.00, 256.00,160.00c 111.657,0.00, 208.439-65.021, 256.00-160.00 C 464.442,161.021, 367.657,96.00, 256.00,96.00z M 382.225,180.852c 30.081,19.187, 55.571,44.887, 74.717,75.148 c-19.146,30.261-44.637,55.961-74.718,75.149C 344.427,355.257, 300.779,368.00, 256.00,368.00c-44.78,0.00-88.428-12.743-126.225-36.852 C 99.695,311.962, 74.205,286.262, 55.058,256.00c 19.146-30.262, 44.637-55.962, 74.717-75.148c 1.959-1.25, 3.938-2.461, 5.929-3.65 C 130.725,190.866, 128.00,205.613, 128.00,221.00c0.00,70.692, 57.308,128.00, 128.00,128.00s 128.00-57.308, 128.00-128.00c0.00-15.387-2.725-30.134-7.704-43.799 C 378.286,178.39, 380.265,179.602, 382.225,180.852z M 256.00,205.00c0.00,26.51-21.49,48.00-48.00,48.00s-48.00-21.49-48.00-48.00s 21.49-48.00, 48.00-48.00 S 256.00,178.49, 256.00,205.00z" ></path></svg>