<?xml version="1.0" encoding="utf-8"?> <!-- Generator: IcoMoon.io --> <!DOCTYPE svg PUBLIC "-//W3C//DTD SVG 1.1//EN" "http://www.w3.org/Graphics/SVG/1.1/DTD/svg11.dtd"> <svg fill="#ffffff" xmlns:xlink="http://www.w3.org/1999/xlink" xmlns="http://www.w3.org/2000/svg" width="512" height="512" viewBox="0 0 512 512"><path d="M 256.00,0.00C 114.615,0.00,0.00,114.615,0.00,256.00s 114.615,256.00, 256.00,256.00s 256.00-114.615, 256.00-256.00S 397.385,0.00, 256.00,0.00z M 352.00,128.00 c 17.674,0.00, 32.00,21.49, 32.00,48.00s-14.326,48.00-32.00,48.00s-32.00-21.49-32.00-48.00S 334.326,128.00, 352.00,128.00z M 160.00,128.00c 17.673,0.00, 32.00,21.49, 32.00,48.00 s-14.327,48.00-32.00,48.00s-32.00-21.49-32.00-48.00S 142.327,128.00, 160.00,128.00z M 256.00,448.00c-83.434,0.00-152.711-69.936-160.00-159.152 c 46.885,27.057, 102.025,42.532, 160.00,42.532c 57.975,0.00, 113.115-15.403, 160.00-42.46C 408.713,378.139, 339.436,448.00, 256.00,448.00z" ></path></svg>