<?xml version="1.0" encoding="utf-8"?> <!-- Generator: IcoMoon.io --> <!DOCTYPE svg PUBLIC "-//W3C//DTD SVG 1.1//EN" "http://www.w3.org/Graphics/SVG/1.1/DTD/svg11.dtd"> <svg fill="#ffffff" xmlns:xlink="http://www.w3.org/1999/xlink" xmlns="http://www.w3.org/2000/svg" width="512" height="512" viewBox="0 0 512 512"><path d="M 512.00,512.00l-73.12,0.00 C 438.88,270.00, 242.00,73.152,0.00,73.152L0.00,0.00 C 282.256,0.00, 512.00,229.68, 512.00,512.00L 512.00,512.00zM 365.68,512.00l-73.12,0.00 c0.00-161.312-131.312-292.56-292.56-292.56L0.00,146.288 C 201.632,146.288, 365.68,310.368, 365.68,512.00 L 365.68,512.00zM 219.44,512.00L 146.256,512.00 c0.00-80.688-65.568-146.256-146.256-146.256l0.00-73.184 C 120.992,292.56, 219.44,391.008, 219.44,512.00 L 219.44,512.00zM 73.12,512.00c0.00-40.368-32.688-73.12-73.12-73.12L0.00,512.00 L 73.12,512.00 z" ></path></svg>