<?xml version="1.0" encoding="utf-8"?> <!-- Generator: IcoMoon.io --> <!DOCTYPE svg PUBLIC "-//W3C//DTD SVG 1.1//EN" "http://www.w3.org/Graphics/SVG/1.1/DTD/svg11.dtd"> <svg fill="#ffffff" xmlns:xlink="http://www.w3.org/1999/xlink" xmlns="http://www.w3.org/2000/svg" viewBox="0 0 512 512" height="512" width="512"><path d="M 488.88,403.504L 288.576,60.528c-16.704-16.704-43.808-16.704-60.512,0.00L 27.744,403.504 c-16.704,16.688-16.704,43.776,0.00,60.496l 461.12,0.00 C 505.60,447.28, 505.60,420.192, 488.88,403.504z M 239.872,183.648c0.00-13.264, 10.752-24.00, 24.00-24.00 s 24.00,10.736, 24.00,24.00l0.00,112.00 c0.00,13.248-10.752,24.00-24.00,24.00s-24.00-10.752-24.00-24.00L 239.872,183.648 z M 264.016,399.776c-13.248,0.00-24.00-10.72-24.00-24.00 c0.00-13.248, 10.752-24.00, 24.00-24.00s 24.00,10.752, 24.00,24.00C 288.016,389.056, 277.264,399.776, 264.016,399.776z"></path></svg>