<?xml version="1.0" encoding="utf-8"?> <!-- Generator: IcoMoon.io --> <!DOCTYPE svg PUBLIC "-//W3C//DTD SVG 1.1//EN" "http://www.w3.org/Graphics/SVG/1.1/DTD/svg11.dtd"> <svg fill="#ffffff" xmlns:xlink="http://www.w3.org/1999/xlink" xmlns="http://www.w3.org/2000/svg" width="512" height="512" viewBox="0 0 512 512"><path d="M 505.216,419.376l-191.984-384.00C 302.40,13.696, 280.256,0.00, 256.00,0.00s-46.40,13.696-57.232,35.376 l-191.984,384.00c-9.92,19.84-8.864,43.408, 2.80,62.288C 21.248,500.512, 41.84,512.00, 64.016,512.00l 383.952,0.00 c 22.192,0.00, 42.784-11.488, 54.432-30.336 C 514.064,462.784, 515.12,439.216, 505.216,419.376z M 287.968,432.00c0.00,8.848-7.152,16.00-16.00,16.00l-32.00,0.00 c-8.848,0.00-16.00-7.152-16.00-16.00l0.00-32.00 c0.00-8.848, 7.152-16.00, 16.00-16.00l 32.00,0.00 c 8.848,0.00, 16.00,7.152, 16.00,16.00L 287.968,432.00 z M 287.968,304.00c0.00,8.848-7.152,16.00-16.00,16.00l-32.00,0.00 c-8.848,0.00-16.00-7.152-16.00-16.00L 223.968,144.00 c0.00-8.832, 7.152-16.00, 16.00-16.00l 32.00,0.00 c 8.848,0.00, 16.00,7.168, 16.00,16.00 L 287.968,304.00 z" ></path></svg>