<?xml version="1.0" encoding="utf-8"?> <!-- Generator: IcoMoon.io --> <!DOCTYPE svg PUBLIC "-//W3C//DTD SVG 1.1//EN" "http://www.w3.org/Graphics/SVG/1.1/DTD/svg11.dtd"> <svg fill="#ffffff" xmlns:xlink="http://www.w3.org/1999/xlink" xmlns="http://www.w3.org/2000/svg" width="512" height="512" viewBox="0 0 512 512"><path d="M 256.00,0.00C 114.615,0.00,0.00,114.615,0.00,256.00s 114.615,256.00, 256.00,256.00s 256.00-114.615, 256.00-256.00S 397.385,0.00, 256.00,0.00z M 352.00,128.00 c 17.673,0.00, 32.00,14.327, 32.00,32.00s-14.327,32.00-32.00,32.00s-32.00-14.327-32.00-32.00S 334.327,128.00, 352.00,128.00z M 128.00,160.00c0.00-17.673, 14.327-32.00, 32.00-32.00 s 32.00,14.327, 32.00,32.00s-14.327,32.00-32.00,32.00S 128.00,177.673, 128.00,160.00z M 165.622,403.193l-11.244-38.387l 218.50-64.00l 11.244,38.387L 165.622,403.193z" ></path></svg>