<?xml version="1.0" encoding="utf-8"?> <!-- Generator: IcoMoon.io --> <!DOCTYPE svg PUBLIC "-//W3C//DTD SVG 1.1//EN" "http://www.w3.org/Graphics/SVG/1.1/DTD/svg11.dtd"> <svg fill="#ffffff" xmlns:xlink="http://www.w3.org/1999/xlink" xmlns="http://www.w3.org/2000/svg" width="512" height="512" viewBox="0 0 512 512"><path d="M 256.00,512.00c 141.385,0.00, 256.00-114.615, 256.00-256.00S 397.385,0.00, 256.00,0.00S0.00,114.615,0.00,256.00S 114.615,512.00, 256.00,512.00z M 256.00,48.00 c 114.875,0.00, 208.00,93.125, 208.00,208.00s-93.125,208.00-208.00,208.00S 48.00,370.875, 48.00,256.00S 141.125,48.00, 256.00,48.00zM 372.87,300.81L 384.114,339.198L 165.61,403.199L 154.366,364.811zM 128.00,160.00 C 128.00,142.327 142.327,128.00 160.00,128.00 C 177.673,128.00 192.00,142.327 192.00,160.00 C 192.00,177.673 177.673,192.00 160.00,192.00 C 142.327,192.00 128.00,177.673 128.00,160.00 Z M 320.00,160.00 C 320.00,142.327 334.327,128.00 352.00,128.00 C 369.673,128.00 384.00,142.327 384.00,160.00 C 384.00,177.673 369.673,192.00 352.00,192.00 C 334.327,192.00 320.00,177.673 320.00,160.00 Z" ></path></svg>