<?xml version="1.0" encoding="utf-8"?> <!-- Generator: IcoMoon.io --> <!DOCTYPE svg PUBLIC "-//W3C//DTD SVG 1.1//EN" "http://www.w3.org/Graphics/SVG/1.1/DTD/svg11.dtd"> <svg fill="#ffffff" xmlns:xlink="http://www.w3.org/1999/xlink" xmlns="http://www.w3.org/2000/svg" width="512" height="512" viewBox="0 0 512 512"><path d="M 512.00,304.047l0.00-96.094 l-73.387-12.231c-2.979-9.066-6.611-17.834-10.847-26.25l 43.227-60.517l-67.948-67.949l-60.413,43.152 c-8.455-4.277-17.269-7.944-26.384-10.951L 304.047,0.00l-96.094,0.00 l-12.201,73.208c-9.115,3.007-17.929,6.674-26.383,10.951 l-60.414-43.152l-67.949,67.949l 43.227,60.518c-4.235,8.415-7.867,17.183-10.846,26.249L0.00,207.953l0.00,96.094 l 73.559,12.26 c 2.98,8.984, 6.605,17.674, 10.821,26.015l-43.374,60.724l 67.949,67.948l 60.827-43.447c 8.301,4.175, 16.945,7.764, 25.882,10.717 L 207.953,512.00l 96.094,0.00 l 12.289-73.737c 8.937-2.953, 17.581-6.542, 25.883-10.716l 60.826,43.446l 67.948-67.948l-43.372-60.723 c 4.216-8.341, 7.839-17.031, 10.82-26.016L 512.00,304.047z M 256.00,320.00c-35.346,0.00-64.00-28.653-64.00-64.00c0.00-35.346, 28.654-64.00, 64.00-64.00 c 35.347,0.00, 64.00,28.654, 64.00,64.00C 320.00,291.347, 291.347,320.00, 256.00,320.00z" ></path></svg>