<?xml version="1.0" encoding="utf-8"?> <!-- Generator: IcoMoon.io --> <!DOCTYPE svg PUBLIC "-//W3C//DTD SVG 1.1//EN" "http://www.w3.org/Graphics/SVG/1.1/DTD/svg11.dtd"> <svg fill="#000000" xmlns:xlink="http://www.w3.org/1999/xlink" xmlns="http://www.w3.org/2000/svg" width="512" height="512" viewBox="0 0 512 512"><path d="M 256.00,512.00c 141.385,0.00, 256.00-114.615, 256.00-256.00S 397.385,0.00, 256.00,0.00S0.00,114.615,0.00,256.00S 114.615,512.00, 256.00,512.00z M 256.00,48.00 c 114.875,0.00, 208.00,93.125, 208.00,208.00s-93.125,208.00-208.00,208.00S 48.00,370.875, 48.00,256.00S 141.125,48.00, 256.00,48.00zM 128.00,160.00A32.00,32.00 2520.00 1,0 192.00,160A32.00,32.00 2520.00 1,0 128.00,160zM 320.00,160.00A32.00,32.00 2520.00 1,0 384.00,160A32.00,32.00 2520.00 1,0 320.00,160zM 363.053,320.00 L 395.485,320.00 C 400.108,356.253 379.259,392.265 343.506,405.28 C 302.054,420.368 256.056,398.922 240.966,357.472 C 231.912,332.60 204.313,319.731 179.442,328.786 C 156.661,337.08 143.964,360.935 148.948,383.998 L 116.518,383.998 C 111.897,347.744 132.743,311.734 168.496,298.718 C 209.948,283.629 255.947,305.076 271.037,346.525 C 280.089,371.399 307.69,384.266 332.559,375.211 C 355.34,366.919 368.037,343.062 363.053,320.00 Z" ></path></svg>