<?xml version="1.0" encoding="utf-8"?> <!-- Generator: IcoMoon.io --> <!DOCTYPE svg PUBLIC "-//W3C//DTD SVG 1.1//EN" "http://www.w3.org/Graphics/SVG/1.1/DTD/svg11.dtd"> <svg fill="#000000" xmlns:xlink="http://www.w3.org/1999/xlink" xmlns="http://www.w3.org/2000/svg" width="512" height="512" viewBox="0 0 512 512"><path d="M 256.00,0.00C 114.615,0.00,0.00,114.615,0.00,256.00s 114.613,256.00, 256.00,256.00c 141.385,0.00, 256.00-114.615, 256.00-256.00S 397.385,0.00, 256.00,0.00z M 320.00,384.00L 192.00,384.00 l0.00-32.00 l 128.00,0.00 L 320.00,384.00 z M 352.00,128.00c 17.673,0.00, 32.00,14.327, 32.00,32.00c0.00,17.673-14.327,32.00-32.00,32.00s-32.00-14.327-32.00-32.00C 320.00,142.327, 334.327,128.00, 352.00,128.00z M 160.00,128.00 c 17.673,0.00, 32.00,14.327, 32.00,32.00c0.00,17.673-14.327,32.00-32.00,32.00s-32.00-14.327-32.00-32.00C 128.00,142.327, 142.327,128.00, 160.00,128.00z" ></path></svg>