<?xml version="1.0" encoding="utf-8"?> <!-- Generator: IcoMoon.io --> <!DOCTYPE svg PUBLIC "-//W3C//DTD SVG 1.1//EN" "http://www.w3.org/Graphics/SVG/1.1/DTD/svg11.dtd"> <svg fill="#000000" xmlns:xlink="http://www.w3.org/1999/xlink" xmlns="http://www.w3.org/2000/svg" width="512" height="512" viewBox="0 0 512 512"><path d="M 256.00,512.00c 141.385,0.00, 256.00-114.615, 256.00-256.00S 397.385,0.00, 256.00,0.00S0.00,114.615,0.00,256.00S 114.615,512.00, 256.00,512.00z M 256.00,48.00 c 114.875,0.00, 208.00,93.125, 208.00,208.00s-93.125,208.00-208.00,208.00S 48.00,370.875, 48.00,256.00S 141.125,48.00, 256.00,48.00zM 192.00,352.00 C 192.00,316.654 220.654,288.00 256.00,288.00 C 291.346,288.00 320.00,316.654 320.00,352.00 C 320.00,387.346 291.346,416.00 256.00,416.00 C 220.654,416.00 192.00,387.346 192.00,352.00 ZM 320.00,176.00A32.00,48.00 2520.00 1,0 384.00,176A32.00,48.00 2520.00 1,0 320.00,176zM 128.00,176.00A32.00,48.00 2520.00 1,0 192.00,176A32.00,48.00 2520.00 1,0 128.00,176z" ></path></svg>