<?xml version="1.0" encoding="utf-8"?> <!-- Generator: IcoMoon.io --> <!DOCTYPE svg PUBLIC "-//W3C//DTD SVG 1.1//EN" "http://www.w3.org/Graphics/SVG/1.1/DTD/svg11.dtd"> <svg fill="#000000" xmlns:xlink="http://www.w3.org/1999/xlink" xmlns="http://www.w3.org/2000/svg" width="512" height="512" viewBox="0 0 512 512"><path d="M 464.00,288.00 C 500.50,288.00 480.00,384.00 448.00,384.00 C 464.00,384.00 448.00,464.00 416.00,464.00 C 416.00,496.00 384.00,512.00 352.00,512.00 C 216.824,512.00 264.368,478.175 128.00,464.00 L 128.00,208.00 C 248.461,171.866 368.00,81.288 368.00,0.00 C 394.50,0.00 464.00,32.00 368.00,192.00 C 368.00,192.00 448.00,192.00 464.00,192.00 C 512.00,192.00 496.00,288.00 464.00,288.00 ZM 96.00,208.00 L 96.00,464.00 L 128.00,464.00 L 128.00,480.00 L 64.00,480.00 C 46.40,480.00 32.00,458.40 32.00,432.00 L 32.00,240.00 C 32.00,213.60 46.40,192.00 64.00,192.00 L 128.00,192.00 L 128.00,208.00 L 96.00,208.00 Z" ></path></svg>