<?xml version="1.0" encoding="utf-8"?> <!-- Generator: IcoMoon.io --> <!DOCTYPE svg PUBLIC "-//W3C//DTD SVG 1.1//EN" "http://www.w3.org/Graphics/SVG/1.1/DTD/svg11.dtd"> <svg fill="#000000" xmlns:xlink="http://www.w3.org/1999/xlink" xmlns="http://www.w3.org/2000/svg" width="512" height="512" viewBox="0 0 512 512"><path d="M 192.00,32.00l 320.00,0.00 l0.00,64.00 L 192.00,96.00 L 192.00,32.00 z M 192.00,224.00l 320.00,0.00 l0.00,64.00 L 192.00,288.00 L 192.00,224.00 z M 192.00,416.00l 320.00,0.00 l0.00,64.00 L 192.00,480.00 L 192.00,416.00 zM0.00,64.00A64.00,64.00 2520.00 1,0 128.00,64A64.00,64.00 2520.00 1,0 0.00,64zM0.00,256.00A64.00,64.00 2520.00 1,0 128.00,256A64.00,64.00 2520.00 1,0 0.00,256zM0.00,448.00A64.00,64.00 2520.00 1,0 128.00,448A64.00,64.00 2520.00 1,0 0.00,448z" ></path></svg>