<?xml version="1.0" encoding="utf-8"?> <!-- Generator: IcoMoon.io --> <!DOCTYPE svg PUBLIC "-//W3C//DTD SVG 1.1//EN" "http://www.w3.org/Graphics/SVG/1.1/DTD/svg11.dtd"> <svg fill="#000000" xmlns:xlink="http://www.w3.org/1999/xlink" xmlns="http://www.w3.org/2000/svg" width="512" height="512" viewBox="0 0 512 512"><path d="M 256.00,512.00c 141.385,0.00, 256.00-114.615, 256.00-256.00S 397.385,0.00, 256.00,0.00S0.00,114.615,0.00,256.00S 114.615,512.00, 256.00,512.00z M 256.00,48.00 c 114.875,0.00, 208.00,93.125, 208.00,208.00s-93.125,208.00-208.00,208.00S 48.00,370.875, 48.00,256.00S 141.125,48.00, 256.00,48.00zM 400.00,128.00 C 408.80,128.00 416.00,135.20 416.00,144.00 L 416.00,192.00 C 416.00,209.60 401.60,224.00 384.00,224.00 L 320.00,224.00 C 302.40,224.00 288.00,209.60 288.00,192.00 L 224.00,192.00 C 224.00,209.60 209.60,224.00 192.00,224.00 L 128.00,224.00 C 110.40,224.00 96.00,209.60 96.00,192.00 L 96.00,144.00 C 96.00,135.20 103.20,128.00 112.00,128.00 L 208.00,128.00 C 216.80,128.00 224.00,135.20 224.00,144.00 L 224.00,160.00 L 288.00,160.00 L 288.00,144.00 C 288.00,135.20 295.20,128.00 304.00,128.00 L 400.00,128.00 ZM 256.00,384.00 C 302.604,384.00 343.386,359.091 365.773,321.861 L 393.213,338.328 C 365.23,384.863 314.255,416.00 256.00,416.00 C 231.771,416.00 208.808,410.602 188.23,400.959 L 204.811,373.32 C 220.488,380.177 237.793,384.00 256.00,384.00 Z" ></path></svg>