<?xml version="1.0" encoding="utf-8"?> <!-- Generator: IcoMoon.io --> <!DOCTYPE svg PUBLIC "-//W3C//DTD SVG 1.1//EN" "http://www.w3.org/Graphics/SVG/1.1/DTD/svg11.dtd"> <svg fill="#000000" xmlns:xlink="http://www.w3.org/1999/xlink" xmlns="http://www.w3.org/2000/svg" width="512" height="512" viewBox="0 0 512 512"><path d="M 256.00,0.00C 114.615,0.00,0.00,114.615,0.00,256.00s 114.613,256.00, 256.00,256.00c 141.385,0.00, 256.00-114.615, 256.00-256.00S 397.385,0.00, 256.00,0.00z M 256.00,416.00 c-24.229,0.00-47.192-5.398-67.771-15.041l 16.581-27.638C 220.488,380.177, 237.793,384.00, 256.00,384.00c 46.604,0.00, 87.386-24.909, 109.771-62.139 l 27.441,16.467C 365.23,384.863, 314.255,416.00, 256.00,416.00z M 416.00,192.00c0.00,17.60-14.40,32.00-32.00,32.00l-64.00,0.00 c-17.60,0.00-32.00-14.40-32.00-32.00l-64.00,0.00 c0.00,17.60-14.40,32.00-32.00,32.00l-64.00,0.00 c-17.60,0.00-32.00-14.40-32.00-32.00l0.00-48.00 c0.00-8.80, 7.20-16.00, 16.00-16.00l 96.00,0.00 c 8.80,0.00, 16.00,7.20, 16.00,16.00l0.00,16.00 l 64.00,0.00 l0.00-16.00 c0.00-8.80, 7.20-16.00, 16.00-16.00l 96.00,0.00 c 8.80,0.00, 16.00,7.20, 16.00,16.00L 416.00,192.00 z" ></path></svg>