<?xml version="1.0" encoding="utf-8"?> <!-- Generator: IcoMoon.io --> <!DOCTYPE svg PUBLIC "-//W3C//DTD SVG 1.1//EN" "http://www.w3.org/Graphics/SVG/1.1/DTD/svg11.dtd"> <svg fill="#000000" xmlns:xlink="http://www.w3.org/1999/xlink" xmlns="http://www.w3.org/2000/svg" width="512" height="512" viewBox="0 0 512 512"><path d="M 319.998,224.00 C 302.325,224.00 287.998,209.673 287.999,191.999 C 287.999,191.414 288.017,190.834 288.048,190.257 C 289.064,166.53 310.654,150.784 328.844,141.688 C 346.215,133.003 363.395,128.658 364.118,128.477 C 372.691,126.333 381.377,131.546 383.521,140.119 C 385.663,148.692 380.451,157.378 371.879,159.522 C 363.066,161.747 352.618,165.582 343.411,170.197 C 348.735,175.912 351.998,183.573 351.998,192.00 C 351.998,209.673 337.671,224.00 319.998,224.00 ZM 140.121,159.522 C 131.549,157.379 126.337,148.692 128.48,140.12 C 130.623,131.547 139.31,126.334 147.883,128.478 C 148.605,128.659 165.786,133.003 183.157,141.689 C 201.348,150.784 222.937,166.531 223.953,190.258 C 223.984,190.835 224.002,191.416 224.002,192.00 C 224.002,209.673 209.675,224.00 192.002,224.00 C 174.329,224.00 160.002,209.673 160.002,192.00 C 160.002,183.573 163.265,175.912 168.589,170.197 C 159.382,165.582 148.933,161.747 140.121,159.522 ZM 256.00,368.00 C 296.777,368.00 332.462,346.204 352.049,313.63 L 393.213,338.328 C 365.232,384.863 314.255,416.00 256.00,416.00 C 197.745,416.00 146.768,384.863 118.787,338.328 L 159.951,313.63 C 179.538,346.204 215.222,368.00 256.00,368.00 ZM 512.00,32.00c0.00-22.758-4.762-44.40-13.326-64.00c-16.788,38.418-48.224,68.966-87.247,84.589C 368.33,19.609, 314.459,0.00, 256.00,0.00 S 143.67,19.609, 100.573,52.589C 61.549,36.966, 30.114,6.418, 13.326-32.00C 4.762-12.40,0.00,9.242,0.00,32.00 c0.00,36.787, 12.425,70.664, 33.294,97.689C 12.109,166.96,0.00,210.064,0.00,256.00c0.00,141.385, 114.615,256.00, 256.00,256.00s 256.00-114.615, 256.00-256.00 c0.00-45.936-12.109-89.04-33.294-126.311C 499.575,102.664, 512.00,68.787, 512.00,32.00z M 256.00,464.00c-114.875,0.00-208.00-93.125-208.00-208.00 S 141.125,48.00, 256.00,48.00s 208.00,93.125, 208.00,208.00S 370.875,464.00, 256.00,464.00z" ></path></svg>