<?xml version="1.0" encoding="utf-8"?> <!-- Generator: IcoMoon.io --> <!DOCTYPE svg PUBLIC "-//W3C//DTD SVG 1.1//EN" "http://www.w3.org/Graphics/SVG/1.1/DTD/svg11.dtd"> <svg fill="#000000" xmlns:xlink="http://www.w3.org/1999/xlink" xmlns="http://www.w3.org/2000/svg" width="512" height="512" viewBox="0 0 512 512"><path d="M 256.00,0.00C 114.615,0.00,0.00,114.615,0.00,256.00s 114.613,256.00, 256.00,256.00c 141.385,0.00, 256.00-114.615, 256.00-256.00S 397.385,0.00, 256.00,0.00z M 352.00,118.00 c 31.981,0.00, 58.00,26.019, 58.00,58.00c0.00,3.189-0.273,6.438-0.814,9.656c-0.809,4.816-4.979,8.344-9.862,8.344s-9.054-3.528-9.861-8.345 C 386.383,167.313, 370.628,159.00, 352.00,159.00s-34.383,8.313-37.462,26.655c-0.808,4.816-4.978,8.345-9.861,8.345c-0.001,0.00,0.00,0.00-0.001,0.00 c-4.883,0.00-9.053-3.528-9.861-8.344C 294.273,182.438, 294.00,179.189, 294.00,176.00C 294.00,144.019, 320.019,118.00, 352.00,118.00z M 160.00,118.00 c 31.981,0.00, 58.00,26.019, 58.00,58.00c0.00,3.189-0.274,6.438-0.814,9.656c-0.809,4.816-4.978,8.344-9.862,8.344c-4.884,0.00-9.053-3.528-9.861-8.345 C 194.383,167.313, 178.628,159.00, 160.00,159.00s-34.383,8.313-37.462,26.655c-0.808,4.816-4.978,8.345-9.861,8.345c0.00,0.00,0.00,0.00,0.00,0.00 c-4.883,0.00-9.053-3.528-9.862-8.344C 102.274,182.438, 102.00,179.189, 102.00,176.00C 102.00,144.019, 128.019,118.00, 160.00,118.00z M 96.00,288.00l 96.00,0.00 l0.00,123.923 C 136.953,397.62, 96.00,347.361, 96.00,288.00z M 224.00,416.00L 224.00,288.00 l 64.00,0.00 l0.00,128.00 L 224.00,416.00 z M 320.00,411.923L 320.00,288.00 l 96.00,0.00 C 416.00,347.361, 375.048,397.62, 320.00,411.923z" ></path></svg>