<?xml version="1.0" encoding="utf-8"?> <!-- Generator: IcoMoon.io --> <!DOCTYPE svg PUBLIC "-//W3C//DTD SVG 1.1//EN" "http://www.w3.org/Graphics/SVG/1.1/DTD/svg11.dtd"> <svg fill="#000000" xmlns:xlink="http://www.w3.org/1999/xlink" xmlns="http://www.w3.org/2000/svg" width="512" height="512" viewBox="0 0 512 512"><path d="M 48.00,224.00 C 11.50,224.00 32.00,128.00 64.00,128.00 C 48.00,128.00 64.00,48.00 96.00,48.00 C 96.00,16.00 128.00,0.00 160.00,0.00 C 295.176,0.00 247.632,33.825 384.00,48.00 L 384.00,304.00 C 263.539,340.134 144.00,430.712 144.00,512.00 C 117.50,512.00 48.00,480.00 144.00,320.00 C 144.00,320.00 64.00,320.00 48.00,320.00 C 0.00,320.00 16.00,224.00 48.00,224.00 ZM 416.00,304.00 L 416.00,48.00 L 384.00,48.00 L 384.00,32.00 L 448.00,32.00 C 465.60,32.00 480.00,53.60 480.00,80.00 L 480.00,272.00 C 480.00,298.40 465.60,320.00 448.00,320.00 L 384.00,320.00 L 384.00,304.00 L 416.00,304.00 Z" ></path></svg>