<?xml version="1.0" encoding="utf-8"?> <!-- Generator: IcoMoon.io --> <!DOCTYPE svg PUBLIC "-//W3C//DTD SVG 1.1//EN" "http://www.w3.org/Graphics/SVG/1.1/DTD/svg11.dtd"> <svg fill="#000000" xmlns:xlink="http://www.w3.org/1999/xlink" xmlns="http://www.w3.org/2000/svg" width="512" height="512" viewBox="0 0 512 512"><path d="M 256.00,447.504c-10.384,0.00-25.584-11.68-35.664-12.752c-28.752,24.112-58.704,53.136-99.424,68.224 c-17.776,7.536-33.04,11.904-37.008,7.152c-5.328-6.192-13.376-14.784-14.80-17.088c 0.08-3.424, 4.224-0.72, 8.736-5.584 c 24.576-10.336, 40.448-37.008, 51.12-69.616C 51.984,379.264,0.00,306.896,0.00,223.792C0.00,100.256, 114.624,0.096, 256.00,0.096s 256.00,100.144, 256.00,223.696 S 397.376,447.504, 256.00,447.504z" ></path></svg>