<?xml version="1.0" encoding="utf-8"?> <!-- Generator: IcoMoon.io --> <!DOCTYPE svg PUBLIC "-//W3C//DTD SVG 1.1//EN" "http://www.w3.org/Graphics/SVG/1.1/DTD/svg11.dtd"> <svg fill="#000000" xmlns:xlink="http://www.w3.org/1999/xlink" xmlns="http://www.w3.org/2000/svg" width="512" height="512" viewBox="0 0 512 512"><path d="M 256.00,0.00C 114.615,0.00,0.00,114.615,0.00,256.00s 114.613,256.00, 256.00,256.00c 141.385,0.00, 256.00-114.615, 256.00-256.00S 397.385,0.00, 256.00,0.00z M 352.00,128.00 c 17.673,0.00, 32.00,14.327, 32.00,32.00c0.00,17.673-14.327,32.00-32.00,32.00s-32.00-14.327-32.00-32.00C 320.00,142.327, 334.327,128.00, 352.00,128.00z M 160.00,128.00 c 17.673,0.00, 32.00,14.327, 32.00,32.00c0.00,17.673-14.327,32.00-32.00,32.00s-32.00-14.327-32.00-32.00C 128.00,142.327, 142.327,128.00, 160.00,128.00z M 343.505,405.28 c-41.451,15.09-87.45-6.356-102.54-47.807c-9.054-24.871-36.653-37.739-61.524-28.686c-22.781,8.294-35.479,32.148-30.494,55.212 l-32.43,0.00 c-4.622-36.254, 16.225-72.266, 51.978-85.28c 41.452-15.09, 87.451,6.356, 102.541,47.807 c 9.054,24.871, 36.653,37.738, 61.523,28.685c 22.781-8.292, 35.479-32.147, 30.494-55.211l 32.432,0.00 C 400.105,356.253, 379.258,392.266, 343.505,405.28z" ></path></svg>