<?xml version="1.0" encoding="utf-8"?> <!-- Generator: IcoMoon.io --> <!DOCTYPE svg PUBLIC "-//W3C//DTD SVG 1.1//EN" "http://www.w3.org/Graphics/SVG/1.1/DTD/svg11.dtd"> <svg fill="#000000" xmlns:xlink="http://www.w3.org/1999/xlink" xmlns="http://www.w3.org/2000/svg" width="512" height="512" viewBox="0 0 512 512"><path d="M0.00,448.00A64.00,64.00 1440.00 1,0 128.00,448A64.00,64.00 1440.00 1,0 0.00,448zM 96.00,0.00l0.00,64.00 c 194.368,0.00, 352.00,157.616, 352.00,352.00l 64.00,0.00 C 512.00,186.272, 325.712,0.00, 96.00,0.00zM 96.368,128.128C 96.24,128.128, 96.128,128.144, 96.00,128.144l0.00,64.00 c 0.128,0.00, 0.24-0.016, 0.368-0.016 c 123.664,0.00, 223.936,100.24, 224.00,223.872l 64.00,0.00 C 384.304,257.008, 255.376,128.128, 96.368,128.128zM 96.368,256.128c-0.128,0.00-0.24,0.016-0.368,0.016l0.00,64.00 c 0.128,0.00, 0.24-0.016, 0.368-0.016 c 52.976,0.00, 95.936,42.928, 96.00,95.872l 64.00,0.00 C 256.304,327.696, 184.688,256.128, 96.368,256.128z" ></path></svg>