<?xml version="1.0" encoding="utf-8"?> <!-- Generator: IcoMoon.io --> <!DOCTYPE svg PUBLIC "-//W3C//DTD SVG 1.1//EN" "http://www.w3.org/Graphics/SVG/1.1/DTD/svg11.dtd"> <svg fill="#000000" xmlns:xlink="http://www.w3.org/1999/xlink" xmlns="http://www.w3.org/2000/svg" viewBox="0 0 500 500" height="500" width="500.00000000000006"><path d="M 487.80,449.55L 265.10,58.775C 262.025,53.375, 256.25,50.05, 250.00,50.05c-6.25,0.00-12.00,3.325-15.10,8.725L 12.225,449.55 c-3.025,5.30-2.975,11.775, 0.125,17.025s 8.80,8.475, 14.95,8.475l 445.375,0.00 c 6.10,0.00, 11.825-3.225, 14.95-8.475 C 490.725,461.325, 490.775,454.85, 487.80,449.55z M 277.50,425.05L 222.50,425.05 l0.00-50.00 l 55.00,0.00 L 277.50,425.05 z M 277.50,337.55L 222.50,337.55 l0.00-150.00 l 55.00,0.00 L 277.50,337.55 z"></path></svg>