<?xml version="1.0" encoding="utf-8"?> <!-- Generator: IcoMoon.io --> <!DOCTYPE svg PUBLIC "-//W3C//DTD SVG 1.1//EN" "http://www.w3.org/Graphics/SVG/1.1/DTD/svg11.dtd"> <svg fill="#000000" xmlns:xlink="http://www.w3.org/1999/xlink" xmlns="http://www.w3.org/2000/svg" viewBox="0 0 448 448" height="448" width="448"><path d="M 256.00,343.75l0.00-47.50 q0.00-3.50 -2.375-5.875t-5.625-2.375l-48.00,0.00 q-3.25,0.00 -5.625,2.375t-2.375,5.875l0.00,47.50 q0.00,3.50 2.375,5.875t 5.625,2.375l 48.00,0.00 q 3.25,0.00 5.625-2.375t 2.375-5.875zM 255.50,250.25l 4.50-114.75q0.00-3.00 -2.50-4.75q-3.25-2.75 -6.00-2.75l-55.00,0.00 q-2.75,0.00 -6.00,2.75q-2.50,1.75 -2.50,5.25l 4.25,114.25q0.00,2.50 2.50,4.125t 6.00,1.625l 46.25,0.00 q 3.50,0.00 5.875-1.625t 2.625-4.125zM 252.00,16.75l 192.00,352.00q 8.75,15.75 -0.50,31.50q-4.25,7.25 -11.625,11.50t-15.875,4.25l-384.00,0.00 q-8.50,0.00 -15.875-4.25t-11.625-11.50q-9.25-15.75 -0.50-31.50l 192.00-352.00q 4.25-7.75 11.75-12.25t 16.25-4.50t 16.25,4.50t 11.75,12.25z"></path></svg>