<?xml version="1.0" encoding="utf-8"?> <!-- Generator: IcoMoon.io --> <!DOCTYPE svg PUBLIC "-//W3C//DTD SVG 1.1//EN" "http://www.w3.org/Graphics/SVG/1.1/DTD/svg11.dtd"> <svg fill="#000000" xmlns:xlink="http://www.w3.org/1999/xlink" xmlns="http://www.w3.org/2000/svg" width="512" height="512" viewBox="0 0 512 512"><path d="M 256.00,512.00c 141.385,0.00, 256.00-114.615, 256.00-256.00S 397.385,0.00, 256.00,0.00S0.00,114.615,0.00,256.00S 114.615,512.00, 256.00,512.00z M 256.00,48.00 c 114.875,0.00, 208.00,93.125, 208.00,208.00s-93.125,208.00-208.00,208.00S 48.00,370.875, 48.00,256.00S 141.125,48.00, 256.00,48.00zM 271.37,355.514 C 341.494,341.661 395.925,309.743 415.597,267.217 C 404.77,351.195 334.838,416.00 250.172,416.00 C 190.551,416.00 138.243,383.859 108.726,335.526 C 143.931,363.055 205.993,368.43 271.37,355.514 ZM 320.00,176.00A32.00,48.00 2520.00 1,0 384.00,176A32.00,48.00 2520.00 1,0 320.00,176zM 176.00,185.75 C 155.102,185.75 137.333,193.578 130.742,204.50 C 128.972,201.567 128.00,188.413 128.00,185.125 C 128.00,169.592 149.49,157.00 176.00,157.00 C 202.51,157.00 224.00,169.592 224.00,185.125 C 224.00,188.413 223.028,201.567 221.258,204.50 C 214.667,193.578 196.898,185.75 176.00,185.75 Z" ></path></svg>